<?xml version="1.0" standalone="no"?>
<!DOCTYPE svg PUBLIC "-//W3C//DTD SVG 20010904//EN"
 "http://www.w3.org/TR/2001/REC-SVG-20010904/DTD/svg10.dtd">
<svg version="1.0" xmlns="http://www.w3.org/2000/svg"
 width="16.000000pt" height="16.000000pt" viewBox="0 0 16.000000 16.000000"
 preserveAspectRatio="xMidYMid meet">

<g transform="translate(0.000000,16.000000) scale(0.100000,-0.100000)"
fill="#000000" stroke="none">
<path d="M0 152 c0 -5 13 -21 30 -37 17 -16 30 -34 30 -40 0 -6 -13 -19 -30
-28 -17 -10 -30 -25 -30 -33 0 -21 41 -17 67 8 l23 21 23 -21 c13 -12 29 -22
35 -22 15 0 16 35 1 61 -8 15 -7 24 2 35 16 19 4 30 -16 14 -13 -11 -21 -8
-48 18 -31 30 -87 45 -87 24z"/>
</g>
</svg>
